<svg width="164" height="61" viewBox="0 0 164 61" fill="none" xmlns="http://www.w3.org/2000/svg">
<path d="M35.6925 8.78821C35.6925 12.2655 32.8621 15.1364 29.3443 15.1364C25.8265 15.1364 22.9962 12.2655 22.9962 8.78821C22.9962 5.27044 25.8265 2.44005 29.3443 2.44005C32.8621 2.44005 35.6925 5.27044 35.6925 8.78821ZM13.858 19.3415C15.435 30.4609 25.7457 38.1434 36.8246 36.526C36.9864 36.4856 37.1077 36.4856 37.229 36.4451C34.1964 39.6799 30.0721 41.9846 25.3413 42.672C14.2624 44.2894 3.95169 36.6069 2.33433 25.4875C0.757395 14.5298 8.2377 4.34045 19.1145 2.56135C15.0711 6.92824 12.9281 12.9934 13.858 19.3415ZM64.1805 42.8337V2.39962H76.6342V42.8337H64.1805ZM55.6489 40.8525C54.0315 42.1463 52.0098 42.8337 49.9477 42.8337C44.8126 42.8337 40.6883 38.669 40.6883 33.5743V2.39962H53.142V36.0004L61.9162 35.9195L55.6489 40.8525ZM115.929 8.78821C115.929 12.2655 113.099 15.1364 109.581 15.1364C106.063 15.1364 103.233 12.2655 103.233 8.78821C103.233 5.27044 106.063 2.44005 109.581 2.44005C113.099 2.44005 115.929 5.27044 115.929 8.78821ZM94.0945 19.3415C95.6714 30.4609 105.982 38.1434 117.061 36.526C117.223 36.4856 117.344 36.4856 117.465 36.4451C114.433 39.6799 110.309 41.9846 105.578 42.672C94.4988 44.2894 84.1881 36.6069 82.5708 25.4875C80.9938 14.5298 88.4741 4.34045 99.3509 2.56135C95.3075 6.92824 93.1645 12.9934 94.0945 19.3415Z" fill="#FFF3ED" fill-opacity="0.8"/>
<circle cx="142.941" cy="21.0594" r="19.7959" fill="#FFE0BB" stroke="#FF7F1A" stroke-width="2.52713"/>
<path d="M124.408 28.2196C130.937 42.54 147.995 34.9586 148.205 26.9561" stroke="#FF7F1A" stroke-width="2.52713"/>
<path d="M138.307 16.4264L142.73 8.2132L147.574 16.4264L142.73 25.2713L138.307 16.4264Z" fill="#FFE0BB" stroke="#FF7F1A" stroke-width="2.52713"/>
</svg>
